<mxfile host="Electron" agent="Mozilla/5.0 (X11; Linux x86_64) AppleWebKit/537.36 (KHTML, like Gecko) draw.io/24.7.8 Chrome/128.0.6613.36 Electron/32.0.1 Safari/537.36" version="24.7.8">
  <diagram name="Page-1" id="6OxY_6_WlT_LIe2wQiZD">
    <mxGraphModel dx="2138" dy="1482" grid="1" gridSize="10" guides="1" tooltips="1" connect="1" arrows="1" fold="1" page="1" pageScale="1" pageWidth="850" pageHeight="1100" math="0" shadow="0">
      <root>
        <mxCell id="0" />
        <mxCell id="1" parent="0" />
        <mxCell id="eTnkCuq8bk1XYFF8HePN-374" value="" style="rounded=0;whiteSpace=wrap;html=1;strokeColor=none;" vertex="1" parent="1">
          <mxGeometry x="170" y="167.8" width="1120" height="1270" as="geometry" />
        </mxCell>
        <mxCell id="eTnkCuq8bk1XYFF8HePN-86" value="" style="rounded=0;whiteSpace=wrap;html=1;shadow=1;" vertex="1" parent="1">
          <mxGeometry x="259.5" y="777.8" width="230" height="90" as="geometry" />
        </mxCell>
        <mxCell id="eTnkCuq8bk1XYFF8HePN-85" value="&lt;font style=&quot;font-size: 24px;&quot;&gt;&lt;b&gt;Wishbone&lt;/b&gt;&lt;/font&gt;" style="shape=trapezoid;perimeter=trapezoidPerimeter;whiteSpace=wrap;html=1;fixedSize=1;size=60;rotation=-90;" vertex="1" parent="1">
          <mxGeometry x="60" y="757.8" width="1120" height="90" as="geometry" />
        </mxCell>
        <mxCell id="eTnkCuq8bk1XYFF8HePN-88" value="&lt;font style=&quot;font-size: 24px;&quot;&gt;&lt;b&gt;VexRiscV&lt;/b&gt;&lt;/font&gt;" style="rounded=0;whiteSpace=wrap;html=1;fillColor=#BDBDBD;shadow=1;" vertex="1" parent="1">
          <mxGeometry x="259.5" y="717.8" width="230" height="50" as="geometry" />
        </mxCell>
        <mxCell id="eTnkCuq8bk1XYFF8HePN-89" value="&lt;font style=&quot;font-size: 18px;&quot;&gt;&lt;b style=&quot;&quot;&gt;Intruction Bus&lt;/b&gt;&lt;/font&gt;" style="text;html=1;align=center;verticalAlign=middle;resizable=0;points=[];autosize=1;strokeColor=none;fillColor=none;" vertex="1" parent="1">
          <mxGeometry x="340.5" y="783.8" width="150" height="40" as="geometry" />
        </mxCell>
        <mxCell id="eTnkCuq8bk1XYFF8HePN-90" value="&lt;font style=&quot;font-size: 18px;&quot;&gt;&lt;b style=&quot;&quot;&gt;&amp;nbsp;Data Bus&lt;/b&gt;&lt;/font&gt;" style="text;html=1;align=center;verticalAlign=middle;resizable=0;points=[];autosize=1;strokeColor=none;fillColor=none;" vertex="1" parent="1">
          <mxGeometry x="379.5" y="821.8499999999999" width="110" height="40" as="geometry" />
        </mxCell>
        <mxCell id="eTnkCuq8bk1XYFF8HePN-91" value="&lt;font style=&quot;font-size: 18px;&quot;&gt;&lt;b style=&quot;&quot;&gt;Interrupt&lt;/b&gt;&lt;/font&gt;" style="text;html=1;align=center;verticalAlign=middle;resizable=0;points=[];autosize=1;strokeColor=none;fillColor=none;" vertex="1" parent="1">
          <mxGeometry x="255.5" y="802.8" width="100" height="40" as="geometry" />
        </mxCell>
        <mxCell id="eTnkCuq8bk1XYFF8HePN-92" value="" style="whiteSpace=wrap;html=1;aspect=fixed;shadow=1;" vertex="1" parent="1">
          <mxGeometry x="485.5" y="791.8" width="22.5" height="22.5" as="geometry" />
        </mxCell>
        <mxCell id="eTnkCuq8bk1XYFF8HePN-94" value="" style="shape=flexArrow;endArrow=classic;html=1;rounded=0;width=5.736434108527131;endSize=2.1240310077519378;endWidth=7.750736133645815;fillColor=#575757;entryX=0.911;entryY=0.499;entryDx=0;entryDy=0;entryPerimeter=0;" edge="1" parent="1" target="eTnkCuq8bk1XYFF8HePN-92">
          <mxGeometry width="50" height="50" relative="1" as="geometry">
            <mxPoint x="487.5" y="803.04" as="sourcePoint" />
            <mxPoint x="500.5" y="805.25" as="targetPoint" />
          </mxGeometry>
        </mxCell>
        <mxCell id="eTnkCuq8bk1XYFF8HePN-102" value="" style="rounded=0;whiteSpace=wrap;html=1;shadow=1;" vertex="1" parent="1">
          <mxGeometry x="753.5" y="330" width="230" height="70" as="geometry" />
        </mxCell>
        <mxCell id="eTnkCuq8bk1XYFF8HePN-104" value="&lt;font style=&quot;font-size: 24px;&quot;&gt;&lt;b&gt;UART&lt;/b&gt;&lt;/font&gt;" style="rounded=0;whiteSpace=wrap;html=1;fillColor=#BDBDBD;shadow=1;" vertex="1" parent="1">
          <mxGeometry x="753.5" y="270" width="230" height="50" as="geometry" />
        </mxCell>
        <mxCell id="eTnkCuq8bk1XYFF8HePN-105" value="&lt;font style=&quot;font-size: 18px;&quot;&gt;&lt;b&gt;uart&lt;/b&gt;&lt;/font&gt;" style="text;html=1;align=center;verticalAlign=middle;resizable=0;points=[];autosize=1;strokeColor=none;fillColor=none;" vertex="1" parent="1">
          <mxGeometry x="927.5" y="345" width="60" height="40" as="geometry" />
        </mxCell>
        <mxCell id="eTnkCuq8bk1XYFF8HePN-107" value="&lt;font style=&quot;font-size: 18px;&quot;&gt;&lt;b style=&quot;&quot;&gt;wishbone&lt;/b&gt;&lt;/font&gt;" style="text;html=1;align=center;verticalAlign=middle;resizable=0;points=[];autosize=1;strokeColor=none;fillColor=none;" vertex="1" parent="1">
          <mxGeometry x="747.5" y="343.5" width="110" height="40" as="geometry" />
        </mxCell>
        <mxCell id="eTnkCuq8bk1XYFF8HePN-262" value="" style="whiteSpace=wrap;html=1;aspect=fixed;shadow=1;" vertex="1" parent="1">
          <mxGeometry x="485.5" y="830.5999999999999" width="22.5" height="22.5" as="geometry" />
        </mxCell>
        <mxCell id="eTnkCuq8bk1XYFF8HePN-263" value="" style="shape=flexArrow;endArrow=classic;html=1;rounded=0;width=5.736434108527131;endSize=2.1240310077519378;endWidth=7.750736133645815;fillColor=#575757;entryX=0.911;entryY=0.499;entryDx=0;entryDy=0;entryPerimeter=0;" edge="1" target="eTnkCuq8bk1XYFF8HePN-262" parent="1">
          <mxGeometry width="50" height="50" relative="1" as="geometry">
            <mxPoint x="487.5" y="841.8399999999999" as="sourcePoint" />
            <mxPoint x="500.5" y="844.05" as="targetPoint" />
          </mxGeometry>
        </mxCell>
        <mxCell id="eTnkCuq8bk1XYFF8HePN-264" value="" style="whiteSpace=wrap;html=1;aspect=fixed;shadow=1;" vertex="1" parent="1">
          <mxGeometry x="240" y="811.55" width="22.5" height="22.5" as="geometry" />
        </mxCell>
        <mxCell id="eTnkCuq8bk1XYFF8HePN-265" value="" style="shape=flexArrow;endArrow=classic;html=1;rounded=0;width=5.736434108527131;endSize=2.1240310077519378;endWidth=7.750736133645815;fillColor=#575757;entryX=0.911;entryY=0.499;entryDx=0;entryDy=0;entryPerimeter=0;" edge="1" target="eTnkCuq8bk1XYFF8HePN-264" parent="1">
          <mxGeometry width="50" height="50" relative="1" as="geometry">
            <mxPoint x="242" y="822.79" as="sourcePoint" />
            <mxPoint x="255" y="825" as="targetPoint" />
          </mxGeometry>
        </mxCell>
        <mxCell id="eTnkCuq8bk1XYFF8HePN-268" value="" style="whiteSpace=wrap;html=1;aspect=fixed;shadow=1;" vertex="1" parent="1">
          <mxGeometry x="735" y="353.75" width="22.5" height="22.5" as="geometry" />
        </mxCell>
        <mxCell id="eTnkCuq8bk1XYFF8HePN-269" value="" style="shape=flexArrow;endArrow=classic;html=1;rounded=0;width=5.736434108527131;endSize=2.1240310077519378;endWidth=7.750736133645815;fillColor=#575757;entryX=0.911;entryY=0.499;entryDx=0;entryDy=0;entryPerimeter=0;" edge="1" target="eTnkCuq8bk1XYFF8HePN-268" parent="1">
          <mxGeometry width="50" height="50" relative="1" as="geometry">
            <mxPoint x="737" y="364.99" as="sourcePoint" />
            <mxPoint x="750" y="367.2" as="targetPoint" />
          </mxGeometry>
        </mxCell>
        <mxCell id="eTnkCuq8bk1XYFF8HePN-271" value="" style="whiteSpace=wrap;html=1;aspect=fixed;shadow=1;" vertex="1" parent="1">
          <mxGeometry x="979.5" y="353.75" width="22.5" height="22.5" as="geometry" />
        </mxCell>
        <mxCell id="eTnkCuq8bk1XYFF8HePN-272" value="" style="shape=flexArrow;endArrow=classic;html=1;rounded=0;width=5.736434108527131;endSize=2.1240310077519378;endWidth=7.750736133645815;fillColor=#575757;entryX=0.911;entryY=0.499;entryDx=0;entryDy=0;entryPerimeter=0;" edge="1" target="eTnkCuq8bk1XYFF8HePN-271" parent="1">
          <mxGeometry width="50" height="50" relative="1" as="geometry">
            <mxPoint x="981.5" y="364.99" as="sourcePoint" />
            <mxPoint x="994.5" y="367.2" as="targetPoint" />
          </mxGeometry>
        </mxCell>
        <mxCell id="eTnkCuq8bk1XYFF8HePN-273" value="" style="rounded=0;whiteSpace=wrap;html=1;shadow=1;" vertex="1" parent="1">
          <mxGeometry x="753.5" y="480" width="230" height="70" as="geometry" />
        </mxCell>
        <mxCell id="eTnkCuq8bk1XYFF8HePN-274" value="&lt;font style=&quot;font-size: 24px;&quot;&gt;&lt;b&gt;Timer&lt;/b&gt;&lt;/font&gt;" style="rounded=0;whiteSpace=wrap;html=1;fillColor=#BDBDBD;shadow=1;" vertex="1" parent="1">
          <mxGeometry x="753.5" y="420" width="230" height="50" as="geometry" />
        </mxCell>
        <mxCell id="eTnkCuq8bk1XYFF8HePN-275" value="&lt;font style=&quot;font-size: 18px;&quot;&gt;&lt;b&gt;interrrupt&lt;/b&gt;&lt;/font&gt;" style="text;html=1;align=center;verticalAlign=middle;resizable=0;points=[];autosize=1;strokeColor=none;fillColor=none;" vertex="1" parent="1">
          <mxGeometry x="883.5" y="495" width="100" height="40" as="geometry" />
        </mxCell>
        <mxCell id="eTnkCuq8bk1XYFF8HePN-276" value="&lt;font style=&quot;font-size: 18px;&quot;&gt;&lt;b style=&quot;&quot;&gt;wishbone&lt;/b&gt;&lt;/font&gt;" style="text;html=1;align=center;verticalAlign=middle;resizable=0;points=[];autosize=1;strokeColor=none;fillColor=none;" vertex="1" parent="1">
          <mxGeometry x="747.5" y="493.5" width="110" height="40" as="geometry" />
        </mxCell>
        <mxCell id="eTnkCuq8bk1XYFF8HePN-277" value="" style="whiteSpace=wrap;html=1;aspect=fixed;shadow=1;" vertex="1" parent="1">
          <mxGeometry x="735" y="503.75" width="22.5" height="22.5" as="geometry" />
        </mxCell>
        <mxCell id="eTnkCuq8bk1XYFF8HePN-278" value="" style="shape=flexArrow;endArrow=classic;html=1;rounded=0;width=5.736434108527131;endSize=2.1240310077519378;endWidth=7.750736133645815;fillColor=#575757;entryX=0.911;entryY=0.499;entryDx=0;entryDy=0;entryPerimeter=0;" edge="1" parent="1" target="eTnkCuq8bk1XYFF8HePN-277">
          <mxGeometry width="50" height="50" relative="1" as="geometry">
            <mxPoint x="737" y="514.99" as="sourcePoint" />
            <mxPoint x="750" y="517.2" as="targetPoint" />
          </mxGeometry>
        </mxCell>
        <mxCell id="eTnkCuq8bk1XYFF8HePN-279" value="" style="whiteSpace=wrap;html=1;aspect=fixed;shadow=1;" vertex="1" parent="1">
          <mxGeometry x="979.5" y="503.75" width="22.5" height="22.5" as="geometry" />
        </mxCell>
        <mxCell id="eTnkCuq8bk1XYFF8HePN-280" value="" style="shape=flexArrow;endArrow=classic;html=1;rounded=0;width=5.736434108527131;endSize=2.1240310077519378;endWidth=7.750736133645815;fillColor=#575757;entryX=0.911;entryY=0.499;entryDx=0;entryDy=0;entryPerimeter=0;" edge="1" parent="1" target="eTnkCuq8bk1XYFF8HePN-279">
          <mxGeometry width="50" height="50" relative="1" as="geometry">
            <mxPoint x="981.5" y="514.99" as="sourcePoint" />
            <mxPoint x="994.5" y="517.2" as="targetPoint" />
          </mxGeometry>
        </mxCell>
        <mxCell id="eTnkCuq8bk1XYFF8HePN-281" value="" style="rounded=0;whiteSpace=wrap;html=1;shadow=1;" vertex="1" parent="1">
          <mxGeometry x="753.5" y="628.75" width="230" height="70" as="geometry" />
        </mxCell>
        <mxCell id="eTnkCuq8bk1XYFF8HePN-282" value="&lt;font style=&quot;font-size: 24px;&quot;&gt;&lt;b&gt;SRAM&lt;/b&gt;&lt;/font&gt;" style="rounded=0;whiteSpace=wrap;html=1;fillColor=#BDBDBD;shadow=1;" vertex="1" parent="1">
          <mxGeometry x="753.5" y="568.75" width="230" height="50" as="geometry" />
        </mxCell>
        <mxCell id="eTnkCuq8bk1XYFF8HePN-284" value="&lt;font style=&quot;font-size: 18px;&quot;&gt;&lt;b style=&quot;&quot;&gt;wishbone&lt;/b&gt;&lt;/font&gt;" style="text;html=1;align=center;verticalAlign=middle;resizable=0;points=[];autosize=1;strokeColor=none;fillColor=none;" vertex="1" parent="1">
          <mxGeometry x="747.5" y="642.25" width="110" height="40" as="geometry" />
        </mxCell>
        <mxCell id="eTnkCuq8bk1XYFF8HePN-285" value="" style="whiteSpace=wrap;html=1;aspect=fixed;shadow=1;" vertex="1" parent="1">
          <mxGeometry x="735" y="652.5" width="22.5" height="22.5" as="geometry" />
        </mxCell>
        <mxCell id="eTnkCuq8bk1XYFF8HePN-286" value="" style="shape=flexArrow;endArrow=classic;html=1;rounded=0;width=5.736434108527131;endSize=2.1240310077519378;endWidth=7.750736133645815;fillColor=#575757;entryX=0.911;entryY=0.499;entryDx=0;entryDy=0;entryPerimeter=0;" edge="1" target="eTnkCuq8bk1XYFF8HePN-285" parent="1">
          <mxGeometry width="50" height="50" relative="1" as="geometry">
            <mxPoint x="737" y="663.74" as="sourcePoint" />
            <mxPoint x="750" y="665.95" as="targetPoint" />
          </mxGeometry>
        </mxCell>
        <mxCell id="eTnkCuq8bk1XYFF8HePN-289" value="" style="rounded=0;whiteSpace=wrap;html=1;shadow=1;" vertex="1" parent="1">
          <mxGeometry x="753.5" y="777.8" width="230" height="70" as="geometry" />
        </mxCell>
        <mxCell id="eTnkCuq8bk1XYFF8HePN-290" value="&lt;font style=&quot;font-size: 24px;&quot;&gt;&lt;b&gt;SDRAM Ctrl&lt;/b&gt;&lt;/font&gt;" style="rounded=0;whiteSpace=wrap;html=1;fillColor=#BDBDBD;shadow=1;" vertex="1" parent="1">
          <mxGeometry x="753.5" y="717.8" width="230" height="50" as="geometry" />
        </mxCell>
        <mxCell id="eTnkCuq8bk1XYFF8HePN-291" value="&lt;font style=&quot;font-size: 18px;&quot;&gt;&lt;b&gt;DFI&lt;/b&gt;&lt;/font&gt;" style="text;html=1;align=center;verticalAlign=middle;resizable=0;points=[];autosize=1;strokeColor=none;fillColor=none;" vertex="1" parent="1">
          <mxGeometry x="929.5" y="792.8" width="50" height="40" as="geometry" />
        </mxCell>
        <mxCell id="eTnkCuq8bk1XYFF8HePN-292" value="&lt;font style=&quot;font-size: 18px;&quot;&gt;&lt;b style=&quot;&quot;&gt;wishbone&lt;/b&gt;&lt;/font&gt;" style="text;html=1;align=center;verticalAlign=middle;resizable=0;points=[];autosize=1;strokeColor=none;fillColor=none;" vertex="1" parent="1">
          <mxGeometry x="747.5" y="791.3" width="110" height="40" as="geometry" />
        </mxCell>
        <mxCell id="eTnkCuq8bk1XYFF8HePN-293" value="" style="whiteSpace=wrap;html=1;aspect=fixed;shadow=1;" vertex="1" parent="1">
          <mxGeometry x="735" y="801.55" width="22.5" height="22.5" as="geometry" />
        </mxCell>
        <mxCell id="eTnkCuq8bk1XYFF8HePN-294" value="" style="shape=flexArrow;endArrow=classic;html=1;rounded=0;width=5.736434108527131;endSize=2.1240310077519378;endWidth=7.750736133645815;fillColor=#575757;entryX=0.911;entryY=0.499;entryDx=0;entryDy=0;entryPerimeter=0;" edge="1" target="eTnkCuq8bk1XYFF8HePN-293" parent="1">
          <mxGeometry width="50" height="50" relative="1" as="geometry">
            <mxPoint x="737" y="812.79" as="sourcePoint" />
            <mxPoint x="750" y="815" as="targetPoint" />
          </mxGeometry>
        </mxCell>
        <mxCell id="eTnkCuq8bk1XYFF8HePN-295" value="" style="whiteSpace=wrap;html=1;aspect=fixed;shadow=1;" vertex="1" parent="1">
          <mxGeometry x="979.5" y="801.55" width="22.5" height="22.5" as="geometry" />
        </mxCell>
        <mxCell id="eTnkCuq8bk1XYFF8HePN-296" value="" style="shape=flexArrow;endArrow=classic;html=1;rounded=0;width=5.736434108527131;endSize=2.1240310077519378;endWidth=7.750736133645815;fillColor=#575757;entryX=0.911;entryY=0.499;entryDx=0;entryDy=0;entryPerimeter=0;" edge="1" target="eTnkCuq8bk1XYFF8HePN-295" parent="1">
          <mxGeometry width="50" height="50" relative="1" as="geometry">
            <mxPoint x="981.5" y="812.79" as="sourcePoint" />
            <mxPoint x="994.5" y="815" as="targetPoint" />
          </mxGeometry>
        </mxCell>
        <mxCell id="eTnkCuq8bk1XYFF8HePN-297" value="" style="rounded=0;whiteSpace=wrap;html=1;shadow=1;" vertex="1" parent="1">
          <mxGeometry x="753.5" y="930" width="230" height="70" as="geometry" />
        </mxCell>
        <mxCell id="eTnkCuq8bk1XYFF8HePN-298" value="&lt;font style=&quot;font-size: 24px;&quot;&gt;&lt;b&gt;SPI Sdcard&lt;/b&gt;&lt;/font&gt;" style="rounded=0;whiteSpace=wrap;html=1;fillColor=#BDBDBD;shadow=1;" vertex="1" parent="1">
          <mxGeometry x="753.5" y="870" width="230" height="50" as="geometry" />
        </mxCell>
        <mxCell id="eTnkCuq8bk1XYFF8HePN-299" value="&lt;font style=&quot;font-size: 18px;&quot;&gt;&lt;b&gt;SPI&lt;/b&gt;&lt;/font&gt;" style="text;html=1;align=center;verticalAlign=middle;resizable=0;points=[];autosize=1;strokeColor=none;fillColor=none;" vertex="1" parent="1">
          <mxGeometry x="929.5" y="945" width="50" height="40" as="geometry" />
        </mxCell>
        <mxCell id="eTnkCuq8bk1XYFF8HePN-300" value="&lt;font style=&quot;font-size: 18px;&quot;&gt;&lt;b style=&quot;&quot;&gt;wishbone&lt;/b&gt;&lt;/font&gt;" style="text;html=1;align=center;verticalAlign=middle;resizable=0;points=[];autosize=1;strokeColor=none;fillColor=none;" vertex="1" parent="1">
          <mxGeometry x="747.5" y="943.5" width="110" height="40" as="geometry" />
        </mxCell>
        <mxCell id="eTnkCuq8bk1XYFF8HePN-301" value="" style="whiteSpace=wrap;html=1;aspect=fixed;shadow=1;" vertex="1" parent="1">
          <mxGeometry x="735" y="953.75" width="22.5" height="22.5" as="geometry" />
        </mxCell>
        <mxCell id="eTnkCuq8bk1XYFF8HePN-302" value="" style="shape=flexArrow;endArrow=classic;html=1;rounded=0;width=5.736434108527131;endSize=2.1240310077519378;endWidth=7.750736133645815;fillColor=#575757;entryX=0.911;entryY=0.499;entryDx=0;entryDy=0;entryPerimeter=0;" edge="1" target="eTnkCuq8bk1XYFF8HePN-301" parent="1">
          <mxGeometry width="50" height="50" relative="1" as="geometry">
            <mxPoint x="737" y="964.99" as="sourcePoint" />
            <mxPoint x="750" y="967.2" as="targetPoint" />
          </mxGeometry>
        </mxCell>
        <mxCell id="eTnkCuq8bk1XYFF8HePN-303" value="" style="whiteSpace=wrap;html=1;aspect=fixed;shadow=1;" vertex="1" parent="1">
          <mxGeometry x="979.5" y="953.75" width="22.5" height="22.5" as="geometry" />
        </mxCell>
        <mxCell id="eTnkCuq8bk1XYFF8HePN-304" value="" style="shape=flexArrow;endArrow=classic;html=1;rounded=0;width=5.736434108527131;endSize=2.1240310077519378;endWidth=7.750736133645815;fillColor=#575757;entryX=0.911;entryY=0.499;entryDx=0;entryDy=0;entryPerimeter=0;" edge="1" target="eTnkCuq8bk1XYFF8HePN-303" parent="1">
          <mxGeometry width="50" height="50" relative="1" as="geometry">
            <mxPoint x="981.5" y="964.99" as="sourcePoint" />
            <mxPoint x="994.5" y="967.2" as="targetPoint" />
          </mxGeometry>
        </mxCell>
        <mxCell id="eTnkCuq8bk1XYFF8HePN-305" value="" style="line;strokeWidth=2;html=1;" vertex="1" parent="1">
          <mxGeometry x="1002" y="792.8" width="28" height="40" as="geometry" />
        </mxCell>
        <mxCell id="eTnkCuq8bk1XYFF8HePN-315" style="edgeStyle=orthogonalEdgeStyle;rounded=0;orthogonalLoop=1;jettySize=auto;html=1;" edge="1" parent="1" source="eTnkCuq8bk1XYFF8HePN-308">
          <mxGeometry relative="1" as="geometry">
            <mxPoint x="1145" y="811.3" as="targetPoint" />
          </mxGeometry>
        </mxCell>
        <mxCell id="eTnkCuq8bk1XYFF8HePN-308" value="&lt;font style=&quot;font-size: 24px;&quot;&gt;&lt;b&gt;PHY&lt;/b&gt;&lt;/font&gt;" style="text;html=1;align=center;verticalAlign=middle;resizable=0;points=[];autosize=1;strokeColor=none;fillColor=none;" vertex="1" parent="1">
          <mxGeometry x="1030" y="791.3" width="70" height="40" as="geometry" />
        </mxCell>
        <mxCell id="eTnkCuq8bk1XYFF8HePN-316" value="" style="line;strokeWidth=2;html=1;" vertex="1" parent="1">
          <mxGeometry x="670" y="345" width="60" height="40" as="geometry" />
        </mxCell>
        <mxCell id="eTnkCuq8bk1XYFF8HePN-323" value="" style="line;strokeWidth=2;html=1;" vertex="1" parent="1">
          <mxGeometry x="670" y="643.75" width="60" height="40" as="geometry" />
        </mxCell>
        <mxCell id="eTnkCuq8bk1XYFF8HePN-324" value="" style="line;strokeWidth=2;html=1;" vertex="1" parent="1">
          <mxGeometry x="670" y="792.8" width="60" height="40" as="geometry" />
        </mxCell>
        <mxCell id="eTnkCuq8bk1XYFF8HePN-325" value="" style="line;strokeWidth=2;html=1;" vertex="1" parent="1">
          <mxGeometry x="670" y="495" width="60" height="40" as="geometry" />
        </mxCell>
        <mxCell id="eTnkCuq8bk1XYFF8HePN-326" value="" style="line;strokeWidth=2;html=1;" vertex="1" parent="1">
          <mxGeometry x="670" y="945" width="60" height="40" as="geometry" />
        </mxCell>
        <mxCell id="eTnkCuq8bk1XYFF8HePN-328" value="" style="line;strokeWidth=2;html=1;" vertex="1" parent="1">
          <mxGeometry x="1002" y="344.25" width="28" height="40" as="geometry" />
        </mxCell>
        <mxCell id="eTnkCuq8bk1XYFF8HePN-329" style="edgeStyle=orthogonalEdgeStyle;rounded=0;orthogonalLoop=1;jettySize=auto;html=1;" edge="1" source="eTnkCuq8bk1XYFF8HePN-330" parent="1">
          <mxGeometry relative="1" as="geometry">
            <mxPoint x="1145" y="362.75" as="targetPoint" />
          </mxGeometry>
        </mxCell>
        <mxCell id="eTnkCuq8bk1XYFF8HePN-330" value="&lt;font style=&quot;font-size: 24px;&quot;&gt;&lt;b&gt;PHY&lt;/b&gt;&lt;/font&gt;" style="text;html=1;align=center;verticalAlign=middle;resizable=0;points=[];autosize=1;strokeColor=none;fillColor=none;" vertex="1" parent="1">
          <mxGeometry x="1030" y="342.75" width="70" height="40" as="geometry" />
        </mxCell>
        <mxCell id="eTnkCuq8bk1XYFF8HePN-349" value="" style="rounded=0;whiteSpace=wrap;html=1;shadow=1;" vertex="1" parent="1">
          <mxGeometry x="753.5" y="1080" width="230" height="70" as="geometry" />
        </mxCell>
        <mxCell id="eTnkCuq8bk1XYFF8HePN-350" value="&lt;span style=&quot;font-size: 24px;&quot;&gt;&lt;b&gt;LCD&lt;/b&gt;&lt;/span&gt;" style="rounded=0;whiteSpace=wrap;html=1;fillColor=#BDBDBD;shadow=1;" vertex="1" parent="1">
          <mxGeometry x="753.5" y="1020" width="230" height="50" as="geometry" />
        </mxCell>
        <mxCell id="eTnkCuq8bk1XYFF8HePN-351" value="&lt;font style=&quot;font-size: 18px;&quot;&gt;&lt;b&gt;LCD&lt;/b&gt;&lt;/font&gt;" style="text;html=1;align=center;verticalAlign=middle;resizable=0;points=[];autosize=1;strokeColor=none;fillColor=none;" vertex="1" parent="1">
          <mxGeometry x="924.5" y="1095" width="60" height="40" as="geometry" />
        </mxCell>
        <mxCell id="eTnkCuq8bk1XYFF8HePN-352" value="&lt;font style=&quot;font-size: 18px;&quot;&gt;&lt;b style=&quot;&quot;&gt;wishbone&lt;/b&gt;&lt;/font&gt;" style="text;html=1;align=center;verticalAlign=middle;resizable=0;points=[];autosize=1;strokeColor=none;fillColor=none;" vertex="1" parent="1">
          <mxGeometry x="747.5" y="1093.5" width="110" height="40" as="geometry" />
        </mxCell>
        <mxCell id="eTnkCuq8bk1XYFF8HePN-353" value="" style="whiteSpace=wrap;html=1;aspect=fixed;shadow=1;" vertex="1" parent="1">
          <mxGeometry x="735" y="1103.75" width="22.5" height="22.5" as="geometry" />
        </mxCell>
        <mxCell id="eTnkCuq8bk1XYFF8HePN-354" value="" style="shape=flexArrow;endArrow=classic;html=1;rounded=0;width=5.736434108527131;endSize=2.1240310077519378;endWidth=7.750736133645815;fillColor=#575757;entryX=0.911;entryY=0.499;entryDx=0;entryDy=0;entryPerimeter=0;" edge="1" target="eTnkCuq8bk1XYFF8HePN-353" parent="1">
          <mxGeometry width="50" height="50" relative="1" as="geometry">
            <mxPoint x="737" y="1114.99" as="sourcePoint" />
            <mxPoint x="750" y="1117.2" as="targetPoint" />
          </mxGeometry>
        </mxCell>
        <mxCell id="eTnkCuq8bk1XYFF8HePN-355" value="" style="whiteSpace=wrap;html=1;aspect=fixed;shadow=1;" vertex="1" parent="1">
          <mxGeometry x="979.5" y="1103.75" width="22.5" height="22.5" as="geometry" />
        </mxCell>
        <mxCell id="eTnkCuq8bk1XYFF8HePN-356" value="" style="shape=flexArrow;endArrow=classic;html=1;rounded=0;width=5.736434108527131;endSize=2.1240310077519378;endWidth=7.750736133645815;fillColor=#575757;entryX=0.911;entryY=0.499;entryDx=0;entryDy=0;entryPerimeter=0;" edge="1" target="eTnkCuq8bk1XYFF8HePN-355" parent="1">
          <mxGeometry width="50" height="50" relative="1" as="geometry">
            <mxPoint x="981.5" y="1114.99" as="sourcePoint" />
            <mxPoint x="994.5" y="1117.2" as="targetPoint" />
          </mxGeometry>
        </mxCell>
        <mxCell id="eTnkCuq8bk1XYFF8HePN-357" value="" style="line;strokeWidth=2;html=1;" vertex="1" parent="1">
          <mxGeometry x="670" y="1095" width="60" height="40" as="geometry" />
        </mxCell>
        <mxCell id="eTnkCuq8bk1XYFF8HePN-358" value="" style="rounded=0;whiteSpace=wrap;html=1;shadow=1;" vertex="1" parent="1">
          <mxGeometry x="753.5" y="1230" width="230" height="70" as="geometry" />
        </mxCell>
        <mxCell id="eTnkCuq8bk1XYFF8HePN-359" value="&lt;font style=&quot;font-size: 24px;&quot;&gt;&lt;b&gt;GPIO&lt;/b&gt;&lt;/font&gt;" style="rounded=0;whiteSpace=wrap;html=1;fillColor=#BDBDBD;shadow=1;" vertex="1" parent="1">
          <mxGeometry x="753.5" y="1170" width="230" height="50" as="geometry" />
        </mxCell>
        <mxCell id="eTnkCuq8bk1XYFF8HePN-360" value="&lt;font style=&quot;font-size: 18px;&quot;&gt;&lt;b&gt;GPIO&lt;/b&gt;&lt;/font&gt;" style="text;html=1;align=center;verticalAlign=middle;resizable=0;points=[];autosize=1;strokeColor=none;fillColor=none;" vertex="1" parent="1">
          <mxGeometry x="919.5" y="1245" width="70" height="40" as="geometry" />
        </mxCell>
        <mxCell id="eTnkCuq8bk1XYFF8HePN-361" value="&lt;font style=&quot;font-size: 18px;&quot;&gt;&lt;b style=&quot;&quot;&gt;wishbone&lt;/b&gt;&lt;/font&gt;" style="text;html=1;align=center;verticalAlign=middle;resizable=0;points=[];autosize=1;strokeColor=none;fillColor=none;" vertex="1" parent="1">
          <mxGeometry x="747.5" y="1243.5" width="110" height="40" as="geometry" />
        </mxCell>
        <mxCell id="eTnkCuq8bk1XYFF8HePN-362" value="" style="whiteSpace=wrap;html=1;aspect=fixed;shadow=1;" vertex="1" parent="1">
          <mxGeometry x="735" y="1253.75" width="22.5" height="22.5" as="geometry" />
        </mxCell>
        <mxCell id="eTnkCuq8bk1XYFF8HePN-363" value="" style="shape=flexArrow;endArrow=classic;html=1;rounded=0;width=5.736434108527131;endSize=2.1240310077519378;endWidth=7.750736133645815;fillColor=#575757;entryX=0.911;entryY=0.499;entryDx=0;entryDy=0;entryPerimeter=0;" edge="1" target="eTnkCuq8bk1XYFF8HePN-362" parent="1">
          <mxGeometry width="50" height="50" relative="1" as="geometry">
            <mxPoint x="737" y="1264.99" as="sourcePoint" />
            <mxPoint x="750" y="1267.2" as="targetPoint" />
          </mxGeometry>
        </mxCell>
        <mxCell id="eTnkCuq8bk1XYFF8HePN-364" value="" style="whiteSpace=wrap;html=1;aspect=fixed;shadow=1;" vertex="1" parent="1">
          <mxGeometry x="979.5" y="1253.75" width="22.5" height="22.5" as="geometry" />
        </mxCell>
        <mxCell id="eTnkCuq8bk1XYFF8HePN-365" value="" style="shape=flexArrow;endArrow=classic;html=1;rounded=0;width=5.736434108527131;endSize=2.1240310077519378;endWidth=7.750736133645815;fillColor=#575757;entryX=0.911;entryY=0.499;entryDx=0;entryDy=0;entryPerimeter=0;" edge="1" target="eTnkCuq8bk1XYFF8HePN-364" parent="1">
          <mxGeometry width="50" height="50" relative="1" as="geometry">
            <mxPoint x="981.5" y="1264.99" as="sourcePoint" />
            <mxPoint x="994.5" y="1267.2" as="targetPoint" />
          </mxGeometry>
        </mxCell>
        <mxCell id="eTnkCuq8bk1XYFF8HePN-366" value="" style="line;strokeWidth=2;html=1;" vertex="1" parent="1">
          <mxGeometry x="670" y="1245" width="60" height="40" as="geometry" />
        </mxCell>
        <mxCell id="eTnkCuq8bk1XYFF8HePN-372" value="" style="line;strokeWidth=2;html=1;" vertex="1" parent="1">
          <mxGeometry x="510" y="781.85" width="60" height="40" as="geometry" />
        </mxCell>
        <mxCell id="eTnkCuq8bk1XYFF8HePN-373" value="" style="line;strokeWidth=2;html=1;" vertex="1" parent="1">
          <mxGeometry x="510" y="821.85" width="60" height="40" as="geometry" />
        </mxCell>
      </root>
    </mxGraphModel>
  </diagram>
</mxfile>
